<svg id="Layer_1" data-name="Layer 1" xmlns="http://www.w3.org/2000/svg" viewBox="0 0 1147 1147">
  <defs>
    <style>
      .cls-1 {
        fill: none;
        stroke: #b4a883;
        stroke-miterlimit: 10;
        stroke-width: 5px;
      }

      .cls-2 {
        fill: #b4a883;
      }
    </style>
  </defs>
  <title>outline_medium_stiplet</title>
  <path class="cls-1" d="M374.17,36.5844C366,76,374,116,379,156a19.2171,19.2171,0,0,0,4,12l3,3c6,10,10,19,16,29,5,7,13,15,22,12,4,5,6,11,12,14a31.94,31.94,0,0,0,14,3c5,1,6,8,10,9,14,4,26,7,39,13,9,4,20,5,28.1238-.561-1.6158,9.8556-1.8385,1.1348,0,0C526,257,529,264,533,270c17,18,40,34,65,31,13-1,25-7,38-1,18,9,37,8,57,10,8,1,14,7,20,12,4,4,6,10,10,14,8,8,15,17,23,26,7,8,14,16,22,22,14,12,23,24,33,39,8,10,21,13,30,22,3,3,6,6,7,11s-1,9-2,14c10,0,17,8,18,17,1,14-4,28,4,41,2,3,6,5,9,8a3.6737,3.6737,0,0,1,1,3,77.9742,77.9742,0,0,0-20,43c-1,9,2,19,1,28,0,2-2,4-2,6a3.6737,3.6737,0,0,0,1,3c8,8,15,16,14,27,0,12-8,24-3,36,2,7-3,13-7,19-2,4,0,10-4,13-5,4-11,6-17,8-10,4-13,13-19,22-3,6-12,6-16,12-5,9-7,19-16,23-8,3-20,1-24,10-1,4,1,9-1,14-2,4-7,4-11,3-15-4-28-4-43-4-2,0-5-3-5-6-10,1-13,13-14,21-1,9-1,18-2,27-2,9-9,17-18,17-8,0-11-8-17-13-2-1-5-2-8-1-8,3-15,10-24,5a31.94,31.94,0,0,0-14-3c-27,1-57,3-78.6643-15.6614-20.5214.3822,1.6664.1388,0,0A151.4159,151.4159,0,0,0,482,840c-12,4-20,13-32,16-3,1-8-1-11,0-5,2-9,6-14,10a330.1428,330.1428,0,0,1-35,28,11.8328,11.8328,0,0,1-10,1c-10-5-19,1-28,6-2,2-4,4-7,5l-3,3c-1,1-3,1-4,2a100.969,100.969,0,0,1-16,13c-1,1-1,2-2,3-7,7-17,8-27,8-14,6-16,22-21,35-2,4-6,8-8,13-2,6-2,12-5,17-2,1-3,3-5,5-12,9-26,12-38,22-21,18-23,49-20,76a3.4914,3.4914,0,0,0,2-1c-1-26,0-57,22-75,14-11,34-12,43-29,4-9,7-18,11-27,4-7,5-14,7-21,2-6,7-10,13-12,10-2,20-1,27-8a186.8094,186.8094,0,0,1,42-32c3-1,6-2,9-2,6,1,13,4,19,1,19-11,32-29,51-37,2-1,5,1,7,0,14-6,25-15,40-19,10-3,19-5,29-4,22,13,47,19,73,14,10-1,18,4,27,6,7,1,13-5,20-7a18.54,18.54,0,0,1,7,2c5,6,10,14,19,12,11-2,18-11,19-22,2-15,0-32,10.7967-42.5367,1.9245,5.8405-5.5186,4.7062,0,0C694,804,700,804,703,805c8,1,16-1,24,0s15,5,23,4c3,0,5-1,7-4,3-7,0-18,9-21,6-2,12,0,17-3,9-5,11-16,17-24,3-4,8-5,12-8l3-3c3-5,4-9,7-14,4-6,12-8,19-10,10-4,10-14,16-22,2-4,4-8,6-13-6-13,1-27,2-40,1-6,0-12-4-17-2-2-3-3-4-6-1-2-4-4-6-6a3.6737,3.6737,0,0,1-1-3c1-2,2-3,2-5-3-25,1-51,19-70,1-2,0-5-1-6-8-5-13-12-14-21-1-8,2-17,1-25-1-10-7-19-17.073-20.549,5.0329-11.6683,3.5889.3213,0,0C844,456,838,447,830,440c-15-11-32-18-37-37-11-11-23-19-34-31-10-11-19-21-28-33-6-7-11-13-17-20-14-17-37-12-56-14-3,0-5-1-8-2-10-4-20-11-31-9-12,3-22,5-34,4-18-3-32-13-45-25-1-2-3-3-5-5-7-6-5-14-4-22l-1-1c-9,6-18,8-28,4-12-4-22-11-35-11-2,0-3-1-5-2-3-2-5-6-7-7-5-4-11-4-17-6s-9-7-10-13c-5-2-11,0-16-3-5-4-8-9-11-14-3-10-9-18-15-27-5-8-6-16-7-24-2-25-6-50-5-75,0-10,0-20,2.8714-29.7383"/>
  <rect class="cls-2" x="373.8279" y="25.4763" width="8.236" height="7.2177" transform="translate(233.2126 379.4297) rotate(-71.9542)"/>
  <rect class="cls-2" x="378.7729" y="12.1317" width="8.236" height="7.2177" transform="translate(249.3139 374.9207) rotate(-71.9542)"/>
  <rect class="cls-2" x="384.224" y="-1.028" width="8.236" height="7.2177" transform="translate(265.5888 371.0206) rotate(-71.9542)"/>
  <rect class="cls-2" x="204.6689" y="1136.5254" width="8.236" height="7.2177" transform="translate(-795.5946 1718.6806) rotate(-109.5656)"/>
  <rect class="cls-2" x="200.4419" y="1122.9363" width="8.236" height="7.2177" transform="translate(-788.4327 1696.5578) rotate(-109.5656)"/>
  <rect class="cls-2" x="196.7287" y="1109.1847" width="8.236" height="7.2177" transform="translate(-780.4318 1674.7023) rotate(-109.5656)"/>
</svg>
