<svg id="Layer_1" data-name="Layer 1" xmlns="http://www.w3.org/2000/svg" viewBox="0 0 1000 1000">
  <defs>
    <style>
      .cls-1 {
        fill: none;
        stroke: #b4a883;
        stroke-miterlimit: 10;
        stroke-width: 5px;
      }
    </style>
  </defs>
  <title>outline_medium</title>
  <path class="cls-1" d="M872.8115,502.703a13.5968,13.5968,0,0,0-5.4958-6.5025,1.4343,1.4343,0,0,0-.6513-.2415c-12.98-9.3652-6.2207-28.6962-7.6723-42.0133-1.0193-9.3508-7.0118-19.4887-16.9181-20.38,3.7324-8.6131-.5721-18.5425-7.1278-24.8626-9.89-9.5343-23.4709-13.2337-31.9541-24.5841a78.54,78.54,0,0,1-5.3272-8.33c-1.5394-2.7156-2.6916-6.3763-4.6433-8.7823-4.0486-4.9911-10.3251-8.981-15.104-13.3621q-16.5775-15.1978-31.6329-31.9523c-9.4724-10.5424-18.0454-21.7116-26.9236-32.74-8.0029-9.9418-16.8767-15.6976-29.8079-16.2993-7.049-.328-14.0652.0723-21.0985-.7307a99.4035,99.4035,0,0,1-24.2219-5.9534c-5.6774-2.1742-11.1674-5.1128-17.29-5.8121-6.7117-.7666-12.8816,1.846-19.2635,3.4483-16.6088,4.17-33.0623-2.042-47.0211-10.878-11.4984-7.2787-34.924-22.79-27.3557-39.341a1.5071,1.5071,0,0,0-2.3558-1.8177c-16.6154,15.0379-39.3645-5.3273-56.911-7.4827-2.3626-.29-4.9656-.0629-7.273-.62-3.3022-.7977-4.7866-2.8746-6.657-5.4726a12.9829,12.9829,0,0,0-7.2745-5.42c-4.6043-1.3526-9.1656-1.2129-13.4307-3.7677a21.2433,21.2433,0,0,1-9.68-13.2725,1.526,1.526,0,0,0-2.2034-.8964c-8.3265,3.5167-16.4018-2.9674-20.5951-9.6967-3.9065-6.2689-6.0451-13.4526-9.9364-19.7381-3.653-5.9008-8.5082-11.0795-11.4664-17.4066-3.7745-8.0735-3.609-17.7865-4.4285-26.5032-1.5824-16.83-3.3919-33.6566-4.6559-50.5139-1.2575-16.7732-1.3474-33.67,3.2749-49.9819a1.5013,1.5013,0,0,0-2.8928-.7975l0-.002c-5.1252,18.0862-4.5826,36.8609-3.01,55.4141,1.6764,19.78,3.4675,39.5881,5.5589,59.3283a44.3011,44.3011,0,0,0,7.6353,21.4195c4.7569,6.96,9.2232,13.4245,12.7323,21.1536,4.866,10.7179,13.9929,24.81,27.5283,20.5536a24.0617,24.0617,0,0,0,18.3824,16.4017c3.0362.5876,6.5683.6031,9.2218,2.4015,2.1324,1.4454,3.151,3.94,4.7342,5.8633,3.1265,3.7979,7.251,3.9811,11.854,4.3215,18.273,1.3515,39.9307,20.7372,57.8167,9.7-1.51,9.0585,4.2613,17.63,10.7651,24.0777a109.0691,109.0691,0,0,0,32.8764,22.0261c11.2785,4.8472,23.53,6.8605,35.5648,3.839,7.6613-1.9235,14.47-4.7386,22.4667-2.4763,7.2061,2.0388,13.8654,5.6553,21.1013,7.7a102.7646,102.7646,0,0,0,18.215,3.389c7.5528.7172,15.1655-.0152,22.7018.777,15.7669,1.6574,23.626,14.5542,32.6382,25.931a464.5151,464.5151,0,0,0,60.9556,63.5084c6.3041,5.4289,8.9269,13.6628,13.8464,20.3074a52.0344,52.0344,0,0,0,13.7229,12.73c6.6189,4.3037,14.2346,7.6487,19.7124,13.4853,5.5714,5.9366,9.13,14.9447,4.4912,22.4221a1.5106,1.5106,0,0,0,1.2953,2.2571c7.7451-.4812,13.4365,5.9006,15.4957,12.8819,2.1531,7.3.7863,15.2079.47,22.6568-.4283,10.0952,1.2991,21.2183,10.435,27.095a1.4663,1.4663,0,0,0,.6277.233c1.845,1.38,4.0032,3.5676,3.1551,5.7816-.3854,1.0062-2.4371,2.8048-3.1265,3.6661a75.5411,75.5411,0,0,0-5.7275,8.2111,78.104,78.104,0,0,0-8.36,19.4962,76.48,76.48,0,0,0-2.78,21.0334c.0816,7.9588,3.1212,17.058-.8664,24.4583a1.5476,1.5476,0,0,0,.2345,1.8179c9.0951,9.7846,19.0486,22.2706,14.3975,36.4425-1.5806,4.8159-4.2676,9.275-4.8172,14.3953-.5518,5.1415,1.3165,9.98,2.2967,14.9428.5994,3.0348,1.115,6.401-.5557,9.23-1.368,2.3163-3.9289,3.5366-5.4692,5.7122-2.8421,4.0149-1.3975,9.32-3.8433,13.4855-4.13,7.0333-14.3647,8.4662-21.1189,11.9083a23.4993,23.4993,0,0,0-7.8778,6.011c-3.1643,3.9486-3.7992,9.0411-6.3619,13.2907-3.0136,4.9975-8.5089,5.16-12.8212,8.4044a24.6636,24.6636,0,0,0-6.717,8.7026c-4.2666,8.28-6.6633,17.7314-17.0888,19.7153-6.7274,1.28-16.3532.0806-20.072,7.3474-2.7205,5.3166,1.317,14.0768-4.3662,17.7429-5.2575,3.3915-13.6293-.3947-19.0372-1.6353a78.4083,78.4083,0,0,0-20.0686-1.9469c-4.1857.1379-17.29,2.3907-17.0927-4.7859a1.51,1.51,0,0,0-2.2571-1.2952c-11.1973,7.7309-12.16,21.7241-12.8209,34.1492-.45,8.4635-.9294,18.4219-6.99,25.0243-5.2767,5.7481-14.58,8.9253-20.7809,2.7919-3.8734-3.8312-6.268-9.5256-12.2948-10.2842-6.9022-.8687-12.1817,5.31-18.5974,6.5414-7.8349,1.5042-15.3933-4.3428-23.1244-5.0865-8.2744-.7961-16.5721,1.2816-24.8441,1.4452a97.69,97.69,0,0,1-53.01-14.6644,1.4466,1.4466,0,0,0-1.3656-1.99l.0009,0a120.7641,120.7641,0,0,0-45.0082,9.6086,116.316,116.316,0,0,0-19.01,10.2827c-1.4481.9688-3.0932,2.6683-4.7589,3.1537-2.4469.713-4.8036-.176-7.07-.5618a9.1238,9.1238,0,0,0-7.6654,1.5141c-6.4636,4.3752-12.2685,10.0647-18.3924,14.9171q-10.9755,8.6966-22.2941,16.9509c-3.2728,2.3835-6.77,5.2069-10.805,6.134-4.6139,1.06-8.6684-1.566-13.1194-2.1105-6.6459-.8131-12.3639,3.3352-17.7122,6.701-13.5622,8.535-25.3066,18.7608-37.6915,28.8128-3.5632,2.8921-7.4,5.3328-12.0623,5.8308-3.991.4264-7.9937-.3358-11.9277.7239-5.292,1.4254-9.3,5.431-12.118,9.9808-3.6809,5.9421-5.06,12.8265-7.1144,19.4128a40.96,40.96,0,0,1-4.7808,10.7457c-2.1947,3.278-4.5611,5.81-5.4993,9.7318-.8439,3.528-.9277,7.0326-2.4272,10.4037a27.2857,27.2857,0,0,1-6.9526,9.1357c-5.6255,5.0291-12.5447,8.115-19.3455,11.1936-7.1454,3.2344-14.3829,6.6086-20.1055,12.1082-5.4546,5.2422-9.198,11.9465-11.9826,18.9147a110.6743,110.6743,0,0,0-7.1934,54.456c.2467,1.8873,3.25,1.9118,3,0-2.1559-16.495.1279-33.33,5.4049-49.0567,2.5576-7.6221,6.1264-15.1936,11.7562-21.0528,5.1445-5.354,11.7642-8.72,18.4318-11.78,11.0282-5.0615,23.7491-10.3091,29.3849-21.927a29.4392,29.4392,0,0,0,2.3738-8.3284c.7782-4.77,2.5612-7.676,5.2908-11.6083,3.85-5.5471,5.5128-12.07,7.37-18.4693,2.0864-7.1876,4.9529-15.4435,11.8-19.4774,6.4885-3.8225,14.482-.753,21.3189-3.8525,6.0137-2.7263,10.7441-7.8844,15.6962-12.0992a249.2015,249.2015,0,0,1,19.81-15.2188c6.0788-4.2021,14.417-11.3646,21.935-12.2583,6.8732-.817,12.4422,3.9647,19.4517,1.2566,6.7383-2.6034,12.7467-8.1787,18.4473-12.4783q9.22-6.954,18.2168-14.198c3.6854-2.9683,7.2866-6.04,10.9663-9.0143,3.1729-2.5644,5.8938-3.0908,9.91-2.1751a10.28,10.28,0,0,0,3.5806.5652c3.1838-.2963,5.8518-2.69,8.3864-4.3856a114.6685,114.6685,0,0,1,10.97-6.4911A117.1248,117.1248,0,0,1,519.98,802.5336a100.991,100.991,0,0,0,45.8274,16.1523c8.7807.8333,17.2564.0044,25.9892-.8312,4.9248-.4712,9.7724-.5948,14.5947.7311,4.1213,1.1331,7.9666,3.1474,12.1725,4.0006,6.9976,1.4195,11.8112-1.8477,17.8462-4.761,4.7957-2.315,8.77-2.0748,12.4519,2.0276,2.1934,2.444,3.8441,5.35,6.5156,7.3464,9.7843,7.3112,23.0032-1.0578,27.312-10.6393,6.9918-15.5482-.8774-38.923,13.2542-50.9821,2.3364,7.0394,15.0623,5.1121,20.6605,4.9969a79.31,79.31,0,0,1,21.9845,2.8054c4.7766,1.261,10.2437,2.9088,15.18,1.4647,12.5308-3.666,1.6544-20.6518,13.6823-24.0958,8.587-2.459,17.4676-.4369,23.7054-8.2347,2.969-3.7116,4.6626-8.2108,6.6776-12.464,2.9169-6.1569,5.9659-9.9057,12.34-12.6129,4.0493-1.72,6.8411-3.7921,8.8649-7.8341,2.7795-5.5516,3.7537-11.3658,9.2036-15.1108,7.0241-4.8268,16.4669-5.6449,22.804-11.5666,2.99-2.7945,4.0681-6.0238,4.716-9.9724.6425-3.9166,1.4149-6.4677,4.3218-9.2062,1.8954-1.7856,3.4474-3.52,4.1469-6.1006,1.5692-5.7882-1.3714-11.8056-2.2688-17.4441-1.319-8.288,3.7879-14.5441,5.3946-22.28,2.85-13.7189-6.5609-25.8721-15.321-35.3945,3.189-6.9331,1.2765-14.3333.8784-21.7372a74.5323,74.5323,0,0,1,17.4239-51.686C872.5186,506.5489,874.08,506.0011,872.8115,502.703Z"/>
</svg>
