<svg id="Layer_1" data-name="Layer 1" xmlns="http://www.w3.org/2000/svg" viewBox="0 0 1070.9664 862.901">
  <defs>
    <style>
      .cls-1 {
        opacity: 0.44;
      }

      .cls-2 {
        fill: #b4a883;
      }

      .cls-3 {
        fill: #3a7288;
      }

      .cls-4 {
        fill: #f4f4f4;
      }

      .cls-5 {
        fill: none;
        stroke: #3a7288;
        stroke-miterlimit: 10;
        stroke-width: 16px;
      }
    </style>
  </defs>
  <title>outline_map</title>
  <g class="cls-1">
    <path class="cls-2" d="M303.9052-138.0981c-109.1336.7735-310.6212,2.6122-311.0415-.8792.0572,18.2649-3.6211,988.4286-1.44,1006.6767.2257,1.7337,181.415,2.8278,212.9442,1.5439-4.2707,8.6483-9.2365,28.0645-5.6651,17.3783a61.75,61.75,0,0,1,8.7378-17.5465c1.0431-.0819,1.5953-.1713,1.5826-.2685-.0717-.5509-.1567-1.0234-.2522-1.432.5549-.6643,1.12-1.3206,1.7205-1.9479,5.1587-5.39,11.7967-8.7789,18.4827-11.86,11.0587-5.0958,23.8147-10.3786,29.466-22.0751a29.7292,29.7292,0,0,0,2.3766-8.3618,47.2464,47.2464,0,0,0,5.2987-11.694l.01-.0155c3.4607-5.0061,5.1592-10.8014,6.8154-16.589.16-.2526.3177-.507.481-.7581q.6752-.7292,1.3775-1.4328a37.5241,37.5241,0,0,1,3.5768-1.8322c7.1358-3.1671,13.4-12.1895,16.11-19.7562,4.13-.1688,8.37.0486,12.24-1.7131,6.03-2.7448,10.7738-7.9377,15.74-12.1809a250.0018,250.0018,0,0,1,19.8648-15.3216c6.0955-4.2305,14.4568-11.4414,21.9955-12.3411,6.8922-.8225,12.4766,3.9915,19.5055,1.2651,6.7569-2.621,12.7819-8.2339,18.4982-12.5625q9.2454-7.001,18.2671-14.2939c3.6957-2.9883,7.3067-6.0807,10.9966-9.0751,3.1817-2.5817,5.91-3.1117,9.9374-2.19a10.2743,10.2743,0,0,0,3.59.569c3.1927-.2984,5.868-2.7082,8.41-4.4153a114.8888,114.8888,0,0,1,11-6.5349,117.0844,117.0844,0,0,1,49.1666-12.9966,101.0123,101.0123,0,0,0,45.954,16.2614c8.8049.839,17.304.0044,26.0609-.8368a45.0913,45.0913,0,0,1,11.8294.1323A35.7211,35.7211,0,0,0,603.87,687.31a33.2815,33.2815,0,0,0,4.2719.8621,32.8666,32.8666,0,0,0,4.4128,1.2782c7.0169,1.4291,11.8438-1.86,17.8954-4.7931,4.809-2.3307,8.7943-2.0889,12.4863,2.0412,2.2,2.4605,3.8548,5.3861,6.5337,7.3959,9.8113,7.3606,23.0667-1.0649,27.3874-10.7111,7.0111-15.6532-.88-39.1858,13.2908-51.3263,2.3429,7.0869,15.1039,5.1466,20.7176,5.0306a79.2361,79.2361,0,0,1,22.0452,2.8244c4.79,1.2695,10.272,2.9285,15.2219,1.4746,12.5655-3.6908,1.659-20.7912,13.72-24.2586,8.6107-2.4755,17.5159-.44,23.7709-8.29,2.9772-3.7367,4.6754-8.2663,6.696-12.5481,2.925-6.1985,5.9824-9.9726,12.3741-12.6982,4.0605-1.7316,6.86-3.8177,8.8894-7.887.58-1.1636,1.0809-2.3379,1.561-3.5032a31.1129,31.1129,0,0,0,5.1655-7.2746q1.1247-2.1913,2.3288-4.3045c.06-.0426.1128-.0884.1738-.13,7.0435-4.8594,16.5124-5.683,22.867-11.6447,2.9982-2.8134,4.0793-6.0645,4.729-10.04.6443-3.9431,1.4188-6.5114,4.3337-9.2684,1.9006-1.7976,3.4569-3.5443,4.1584-6.1418,1.5735-5.8273-1.3752-11.8853-2.2751-17.5618-1.3226-8.344,3.7984-14.6424,5.4095-22.43,2.8574-13.8115-6.579-26.0468-15.3633-35.6335,3.1978-6.98,1.28-14.43.8808-21.8839a75.2265,75.2265,0,0,1,17.472-52.0351c2.186-2.5735,3.7512-3.1249,2.48-6.4454a13.6742,13.6742,0,0,0-5.5109-6.5463,1.4361,1.4361,0,0,0-.6531-.2432c-13.0153-9.4284-6.2379-28.89-7.6935-42.297-.997-9.1823-6.7534-19.0847-16.2538-20.4009-.1986-.14-.4022-.2736-.6038-.41,3.5238-8.6031-.7542-18.4458-7.2547-24.7377-9.9173-9.5986-23.5357-13.323-32.0423-24.75a79.0971,79.0971,0,0,1-5.342-8.3862c-1.5436-2.7339-2.699-6.4194-4.6561-8.8416-4.06-5.0248-10.3536-9.0416-15.1457-13.4523q-7.4307-6.8394-14.5406-14.0083a41.8329,41.8329,0,0,0-9.3631-9.6445q-3.957-4.2077-7.8165-8.5153C731.13,174.56,722.5328,163.3149,713.63,152.212c-8.025-10.0089-16.9234-15.8035-29.89-16.4093-7.0685-.33-14.104.0728-21.1568-.7356a99.3551,99.3551,0,0,1-24.2887-5.9936c-5.6931-2.1889-11.1982-5.1474-17.3377-5.8514a22.7223,22.7223,0,0,0-4.5235-.0435c-.7731-.0491-1.5516-.0824-2.341-.0824a33.6912,33.6912,0,0,0-6.3833.6289c-.7776-.0207-1.561-.0217-2.3555.0171a56.4989,56.4989,0,0,0-19.1024,4.0675,56.9271,56.9271,0,0,1-12.3-2.6133c-5.2494-2.6418-10.5721-5.1272-16.0169-7.3547q-1.7448-1.0208-3.4446-2.0994c-11.53-7.3279-35.0205-22.9439-27.4313-39.6067a1.5131,1.5131,0,0,0-2.3622-1.83c-16.6614,15.1395-39.4733-5.3632-57.0682-7.5332-2.3692-.2919-4.9793-.0633-7.2931-.6242-3.3113-.8031-4.8-2.894-6.6754-5.51a13.0236,13.0236,0,0,0-7.2946-5.4566c-4.617-1.3617-9.1909-1.2211-13.4678-3.7931A21.3813,21.3813,0,0,1,423.19,38.0268a1.5277,1.5277,0,0,0-2.21-.9025c-8.3494,3.5405-16.447-2.9874-20.6519-9.7621-3.9173-6.3112-6.0618-13.5435-9.9638-19.8714-.9232-1.4971-1.9232-2.948-2.95-4.383a22.0779,22.0779,0,0,0-2.3695-4.1165,45.9675,45.9675,0,0,1-3.4142-5.398c-3.3953-10.6417-4.45-22.0164-6.0729-33.0123-1.0115-6.8557-1.8344-13.7745-3.1626-20.577-.1085-.5556-.2514-1.0995-.3767-1.6493-.8275-8.6368-1.6161-17.2769-2.262-25.9251-1.261-16.8865-1.3511-33.8974,3.2839-50.32a1.5116,1.5116,0,0,0-1.1162-1.82,1.5047,1.5047,0,0,0-1.7846,1.0173l0-.0021c-.0352.1247-.0638.25-.0984.375-3.85-.0817-12.5625-.0827-24.8648-.03M423.29,45.9423m16.95,11.1313,196.7317,622.9"/>
  </g>
  <g>
    <circle class="cls-3" cx="833.7785" cy="466.8652" r="24.238"/>
    <circle class="cls-4" cx="834.0095" cy="467.7319" r="11.1202" transform="translate(-86.4606 726.7293) rotate(-45)"/>
    <polygon class="cls-3" points="833.363 481.005 855.587 476.764 844.674 495.665 833.762 514.566 822.85 495.665 811.711 476.946 833.363 481.005"/>
  </g>
  <g>
    <circle class="cls-3" cx="780.6958" cy="546.6116" r="24.238"/>
    <circle class="cls-4" cx="780.9269" cy="547.4783" r="11.1202" transform="translate(-158.3974 712.5513) rotate(-45)"/>
    <polygon class="cls-3" points="780.28 560.752 802.504 556.511 791.592 575.412 780.679 594.312 769.767 575.412 758.629 556.692 780.28 560.752"/>
  </g>
  <g>
    <circle class="cls-3" cx="405.0447" cy="577.0839" r="24.238"/>
    <circle class="cls-4" cx="405.2758" cy="577.9506" r="11.1202" transform="translate(-289.9703 455.8511) rotate(-45)"/>
    <polygon class="cls-3" points="404.629 591.224 426.853 586.983 415.941 605.884 405.028 624.785 394.116 605.884 382.978 587.164 404.629 591.224"/>
  </g>
  <g>
    <path class="cls-3" d="M838.5771,521.8043V534.818l-.247.2656h-1.3487l-.2656-.2656V528.91h-4.958v5.9082l-.2471.2656h-1.33l-.2471-.2656V521.8043l.2471-.2656h1.33l.2471.2656v5.2627h4.958v-5.2627l.2656-.2656H838.35Z"/>
    <path class="cls-3" d="M847.3555,525.7184a3.1923,3.1923,0,0,1,1.3867,2.85v3.0772a3.5358,3.5358,0,0,1-3.8,3.666,5.5459,5.5459,0,0,1-.7031-.0371c-.1514.4746-.3418,1.0439-.4747,1.5h-1.1015l-.3418-.2842v-.8555l.3037-.95a3.958,3.958,0,0,1-1.4443-3.039V528.568a3.4965,3.4965,0,0,1,3.7617-3.6289c.3418,0,.4756-.0186.7793,0,.1513-.418.3418-.9307.4746-1.3105h1.1777s.19.2089.2852.3037v.7978l-.3037.874Zm-2.166.9873h-.2471a1.7369,1.7369,0,0,0-1.9561,1.8623v3.0772a3.3817,3.3817,0,0,0,.2657,1.083Zm1.7285,1.6719a2.3187,2.3187,0,0,0-.1709-.7793l-1.9756,6.0986.1709-.1709a1.774,1.774,0,0,0,1.9756-1.8808Z"/>
    <path class="cls-3" d="M853.1514,525.3756v11.3418c0,1.919-1.1026,2.6787-2.47,2.6787h-.456l-.2852-.2851v-1.1963l.2852-.2852h.3613c.4365,0,.7979-.19.7979-.8359v-11.418l.2841-.2275h1.2159Zm.1709-3.666v1.8809l-.2657.2656H851.498l-.2656-.2656-.0185-1.8623.2841-.2657h1.5586Z"/>
    <path class="cls-3" d="M863.3525,533.4313v1.082a9.8864,9.8864,0,0,1-3.5517.7412c-2.2608,0-3.7617-.8925-3.7617-3.666v-2.9834c0-2.6972,1.539-3.6279,3.7617-3.6279,2.2607,0,3.78.9121,3.78,3.6279v2.1094l-.3038.2471-5.4531-.0381v.665c0,1.3672.5518,1.8613,1.9766,1.8613a27.6774,27.6774,0,0,0,3.23-.2275Zm-5.5283-3.9522.7608-.3222h3.1914v-.5518c0-1.3486-.3994-1.8613-1.9756-1.8613-1.2158,0-1.957.1709-1.9766,1.8047Z"/>
    <path class="cls-3" d="M866.2236,535.0836v-9.6884l.2657-.2471H867.99v.5127l.9121-.4746a.8844.8844,0,0,1,.3038-.0381h1.2724v1.7861h-1.4433c-.9883,0-1.0264,0-1.0264.3418v7.5606l-.2276.247Z"/>
    <path class="cls-3" d="M877.584,534.8932a3.7213,3.7213,0,0,1-1.5195.3613c-2.5459,0-3.7041-1.0449-3.7041-3.248v-6.6113l.2656-.2657h1.5195v6.877c0,.8545.3418,1.4433,1.919,1.4433,1.7666,0,1.957-.2275,1.957-1.748v-6.3066l.2656-.2657h1.5391v9.669l-.2285.2851H878.04V534.59Z"/>
    <path class="cls-3" d="M890.2754,528.4157V531.74c0,2.4892-1.3106,3.4961-3.6475,3.4961h-.36a2.0251,2.0251,0,0,1-1.4063-.3233c-.247-.1523-.247-.1709-.5312-.3613v4.5977l-.2471.2656h-1.5391V525.3952l.2852-.2657h1.2725l.2285.2842v.3613l.5127-.5127a6.7872,6.7872,0,0,1,1.7851-.2666C889.3447,524.9957,890.2754,526.1549,890.2754,528.4157Zm-1.7471,0c0-1.1778-.665-1.6524-1.9-1.6524a9.7239,9.7239,0,0,0-1.8232.0947c-.3037.1329-.4746.4747-.4746,1.0254v3.7237c0,1.957.8926,1.8613,2.2978,1.8613,1.3682,0,1.9-.417,1.9-1.7666Z"/>
    <path class="cls-3" d="M904.582,528.568a8.7252,8.7252,0,0,1,.3614,2.85c0,2.45-.627,3.666-3.7422,3.666h-4.503l-.247-.2656V521.8239l.2851-.2852h4.18c3.02,0,3.8369.7979,3.8369,3.875a6.8973,6.8973,0,0,1-.3037,1.8809l-1.1963.7412v.0762Zm-6.2881-1.35h2.8692c1.0635,0,1.7285-.2461,1.7285-1.8428v-.1894c0-1.7481-.6084-1.8047-1.6523-1.8047h-2.9454Zm4.8252,3.7432c0-1.6534-.36-1.9385-1.3291-1.9385h-3.4961v4.2363h2.85c1.4824,0,1.9755-.2461,1.9755-1.88Z"/>
    <path class="cls-3" d="M914.6143,525.4137v.418l-3.3438,11.0947c-.57,2.09-1.5195,2.45-3.1162,2.45h-.626l-.2285-.2461v-1.2734l.2471-.2471h.8164c.59,0,.9883-.1514,1.1406-.8164l.4365-1.71h-.665l-1.7471-5.3955c-.4179-1.2539-.8359-2.6025-1.2539-3.8564v-.418l.2276-.2842h1.4814l2.5654,7.7881c.74-2.45,1.6338-5.414,2.3936-7.7881h1.4248Z"/>
    <path class="cls-3" d="M918.1484,536.8883c.1328.7217.76.8174,1.6153.8174,1.0449.0186,1.8994-.1143,1.8994-2.0332V534.59l-.7031.57a3.5171,3.5171,0,0,1-1.1963.1328c-2.2608,0-3.7051-1.083-3.7051-3.666v-2.8125c0-2.4883.9687-3.9316,3.7236-3.7988,1.083.0761,1.4815.1894,1.8809.5508v-.1905l.3037-.2275H923.24l.2461.2471v10.2773c0,3.249-1.8427,3.7236-3.7226,3.7236-1.7862,0-3.2871-.5888-3.4766-2.47l.2471-.2471h1.3672Zm3.5147-9.1943c0-.7793-.1709-.9121-1.8994-.9121-1.71,0-1.919.5322-1.919,2.0322v2.8125c0,1.12.36,1.8613,1.919,1.8613.7021-.0195,1.2158-.0566,1.8994-.0761Z"/>
    <path class="cls-3" d="M926.0908,528.2067l-.19-.19c.0576-1.6523.8555-3.02,3.6855-3.02,2.2989,0,3.6094.836,3.6094,3.2676v6.5733l-.2461.247H931.41v-.4746c-.1329.0947-.5508.4365-.6836.5313a6.0876,6.0876,0,0,1-1.4629.1142c-2.166,0-3.5723-.2275-3.5723-3.3056,0-1.8047,1.0449-2.9258,3.1729-2.9258l2.5263.1338v-.836c0-1.2539-.1894-1.5576-1.69-1.5576-1.2344,0-1.9941.1709-2.0137,1.2529l-.1894.19Zm3.4,5.3574c.7031-.02,1.2158-.0762,1.8994-.0957V530.733h-2.5068c-.9317,0-1.4248.3418-1.4248,1.2159C927.459,533.45,927.99,533.5641,929.4912,533.5641Z"/>
    <path class="cls-3" d="M942.3164,521.5573h1.1963l.2852.3047v13.2216h-1.52l-.2656-.247v-.3233l-.7793.4942a5.1188,5.1188,0,0,1-1.6152.2666c-2.6973,0-3.628-1.0264-3.628-3.5723v-3.21c0-2.28.9688-3.4961,3.628-3.4961a8.0781,8.0781,0,0,1,1.292.1524l1.1025.4941v-3.7617Zm-4.5781,10.1445c0,1.2539.4746,1.7666,1.88,1.7666,2.0136,0,2.3945-.38,2.3945-1.8613v-2.9825c0-1.6337-.5322-1.8613-2.3945-1.8613-1.5957,0-1.88.6074-1.88,1.7666Z"/>
    <path class="cls-3" d="M953.4678,533.4313v1.082a9.8874,9.8874,0,0,1-3.5518.7412c-2.2607,0-3.7617-.8925-3.7617-3.666v-2.9834c0-2.6972,1.5391-3.6279,3.7617-3.6279,2.2608,0,3.78.9121,3.78,3.6279v2.1094l-.3037.2471-5.4531-.0381v.665c0,1.3672.5517,1.8613,1.9765,1.8613a27.6748,27.6748,0,0,0,3.2295-.2275Zm-5.5283-3.9522.7607-.3222h3.1914v-.5518c0-1.3486-.3994-1.8613-1.9756-1.8613-1.2158,0-1.957.1709-1.9765,1.8047Z"/>
    <path class="cls-3" d="M967.4141,521.862v1.3486l-2.6592,3.6855h.2471c2.165.3223,2.7168,1.1778,2.7168,3.3243v1.33c0,2.2412-.8555,3.666-3.8184,3.666-2.9072,0-3.7432-1.0253-3.7813-3.3242l.2471-.2656H961.62l.2471.2656c.0947,1.5391.6269,1.5576,2.0137,1.5576,1.2158,0,2.0136-.0185,2.0136-1.8994v-1.292c0-1.5771-.874-1.7861-2.0322-1.7861h-1.0644l-.2657-.2656v-1.14l2.7549-3.7236h-4.3887l-.2851-.2852v-1.2158l.2851-.2851h6.2686Z"/>
    <path class="cls-3" d="M977.4268,525.0153v6.6113c0,2.2412-.836,3.6094-3.837,3.6094a17.0406,17.0406,0,0,1-2.8877-.1905l-.2666-.2089v-1.2725l.2666-.2471c.8741.0762,2.5645.1328,2.8877.1328,1.2725,0,2.07-.2275,2.07-1.8613v-2.2041l-1.0254.8174a8.1518,8.1518,0,0,1-1.045.1514c-2.9638,0-3.7617-.7979-3.7617-3.6094v-1.69c0-2.1846.7793-3.5909,3.8369-3.5909C976.61,521.4625,977.4268,522.8307,977.4268,525.0153Zm-1.7666.0947c0-1.5957-.3038-1.8809-1.9952-1.8809-1.6709,0-2.0136.2471-2.0136,1.8809v1.6152c0,1.6143.3427,1.8614,2.0136,1.8614,1.5391,0,1.9952-.2471,1.9952-1.8614Z"/>
    <path class="cls-3" d="M979.2324,537.2877v-.5322l.9307-3.0967h1.8808v.8741l-1.5957,2.7548Z"/>
    <path class="cls-3" d="M831.5293,552.4118h4.3887v-4.6163l.247-.247h1.3291l.2286.247v9.8409l-.2471.247H835.918v-3.6855h-6.041l-.2666-.2656v-1.3868l3.6289-8.1884h1.1777l.2851.2851v.5889Z"/>
    <path class="cls-3" d="M846.6338,546.1051c-.5322,0-1.0449-.0381-2.85-.0381-1.2539,0-2.07.2471-2.07,1.8809v2.2412l.9111-.76a3.3638,3.3638,0,0,1,1.1592-.247c2.9824,0,3.78.8359,3.78,3.6289v1.6718c0,2.2032-.7793,3.5909-3.8565,3.5909-2.9443,0-3.7422-1.3682-3.7422-3.5723V547.91c0-2.2227.8164-3.5908,3.8184-3.5908.9306,0,1.8613.0576,2.9443.0762l.2285.2666c0,.1709-.0195.4365-.0195,1.1777Zm-.874,6.7246c0-1.6328-.3418-1.8613-2.0518-1.8613-1.5195,0-1.9941.2285-1.9941,1.8613v1.5967c0,1.5957.8349,1.8613,1.9941,1.8613,1.1973,0,2.0518-.2275,2.0518-1.8613Z"/>
    <path class="cls-3" d="M856.3613,546.1051c-.5322,0-1.0449-.0381-2.85-.0381-1.2539,0-2.07.2471-2.07,1.8809v2.2412l.9111-.76a3.3638,3.3638,0,0,1,1.1592-.247c2.9824,0,3.78.8359,3.78,3.6289v1.6718c0,2.2032-.7783,3.5909-3.8565,3.5909-2.9443,0-3.7421-1.3682-3.7421-3.5723V547.91c0-2.2227.8164-3.5908,3.8183-3.5908.9307,0,1.8613.0576,2.9444.0762l.2285.2666c0,.1709-.02.4365-.02,1.1777Zm-.874,6.7246c0-1.6328-.3418-1.8613-2.0518-1.8613-1.5195,0-1.9941.2285-1.9941,1.8613v1.5967c0,1.5957.835,1.8613,1.9941,1.8613,1.1973,0,2.0518-.2275,2.0518-1.8613Z"/>
    <path class="cls-3" d="M863.1445,558.0358c-2.9638,0-3.5722-1.4444-3.5722-3.6475v-6.5928c0-1.6709.6269-3.5712,3.6474-3.5712s3.61,1.3867,3.61,3.5908v6.5918C866.83,556.63,866.2217,558.0358,863.1445,558.0358Zm1.8994-10.1826c0-1.6153-.6269-1.8623-1.8242-1.8623-1.1777,0-1.8613.247-1.8613,1.8623v6.5156c0,1.7285.6836,1.8623,1.8613,1.8623,1.1973,0,1.8242-.0762,1.8242-1.8623Z"/>
    <path class="cls-3" d="M881.4785,554.3688c0,2.5078-1.14,3.7617-4.331,3.7617-3.04,0-4.1416-1.33-4.1983-3.5146l.2471-.2471h1.3291l.2471.2471c.0761,1.2353.8935,1.6718,2.3564,1.6718,2.0137,0,2.5449-.4746,2.5449-1.957a1.6565,1.6565,0,0,0-1.0449-1.71c-.418-.2089-2.3555-1.1777-3.6279-1.7851a3.0357,3.0357,0,0,1-1.8428-3.1533c0-2.0518.9873-3.4961,4.0078-3.4961,3.0967,0,4.0654.8554,4.1416,3.4l-.2471.247h-1.3671l-.2471-.2851c-.0381-1.253-.418-1.5762-2.28-1.5762-1.8232,0-2.1846.6074-2.1846,1.6143a1.7016,1.7016,0,0,0,1.0264,1.71c2.09.95,2.792,1.2539,3.3242,1.52C880.7764,551.5006,881.4785,552.2037,881.4785,554.3688Z"/>
    <path class="cls-3" d="M886.8369,557.8834a2.3416,2.3416,0,0,1-2.5078-2.6591v-5.49H882.543v-1.539l.247-.2471h1.5391v-3.2861l.3037-.3047h1.2158l.2657.2851v3.3057h2.09v1.0449l-.7783.7412h-1.3115v5.5469a.73.73,0,0,0,.7978.8359h1.33v1.52l-.2656.247Z"/>
    <path class="cls-3" d="M894.0947,558.1871c-2.2607,0-3.7617-1.2343-3.7617-3.457v-3.5908c0-2.166,1.5391-3.4189,3.7617-3.4189,2.2608,0,3.78,1.2158,3.78,3.4189V554.73C897.875,556.9147,896.3359,558.1871,894.0947,558.1871Zm1.9756-7.0478c0-.8545-.3994-1.6523-1.9756-1.6523-1.2353,0-1.9756.456-1.9756,1.6523V554.73c0,.8545.417,1.6524,1.9756,1.6524,1.2344,0,1.9756-.4942,1.9756-1.6524Z"/>
    <path class="cls-3" d="M900.6123,557.8834V548.195l.2656-.2471h1.501v.5127l.9121-.4746a.8838.8838,0,0,1,.3037-.0381h1.2725v1.7861h-1.4434c-.9883,0-1.0263,0-1.0263.3418v7.5606l-.2276.247Z"/>
    <path class="cls-3" d="M913.9482,556.2311v1.082a9.8864,9.8864,0,0,1-3.5517.7412c-2.2608,0-3.7617-.8925-3.7617-3.666v-2.9834c0-2.6972,1.539-3.6279,3.7617-3.6279,2.2607,0,3.78.9121,3.78,3.6279v2.1094l-.3038.2471-5.4531-.0381v.665c0,1.3672.5518,1.8613,1.9766,1.8613a27.6774,27.6774,0,0,0,3.23-.2275Zm-5.5283-3.9522.7608-.3222h3.1914v-.5518c0-1.3486-.3994-1.8613-1.9756-1.8613-1.2158,0-1.957.1709-1.9766,1.8047Z"/>
    <path class="cls-3" d="M929.1484,544.6041v13.0137l-.247.2656h-1.3487l-.2656-.2656V551.71h-4.958v5.9082l-.2471.2656h-1.33l-.2471-.2656V544.6041l.2471-.2656h1.33l.2471.2656v5.2627h4.958v-5.2627l.2656-.2656h1.3682Z"/>
    <path class="cls-3" d="M939.085,556.2311v1.082a9.8874,9.8874,0,0,1-3.5518.7412c-2.2607,0-3.7617-.8925-3.7617-3.666v-2.9834c0-2.6972,1.539-3.6279,3.7617-3.6279,2.2607,0,3.78.9121,3.78,3.6279v2.1094l-.3037.2471-5.4532-.0381v.665c0,1.3672.5518,1.8613,1.9766,1.8613a27.6761,27.6761,0,0,0,3.23-.2275Zm-5.5284-3.9522.7608-.3222h3.1914v-.5518c0-1.3486-.3994-1.8613-1.9756-1.8613-1.2158,0-1.957.1709-1.9766,1.8047Z"/>
    <path class="cls-3" d="M948.0723,544.3571h1.1963l.2851.3047v13.2216h-1.5195l-.2656-.247v-.3233l-.7793.4942a5.12,5.12,0,0,1-1.6153.2666c-2.6972,0-3.6279-1.0264-3.6279-3.5723v-3.21c0-2.28.9687-3.4961,3.6279-3.4961a8.0767,8.0767,0,0,1,1.292.1524l1.1026.4941V544.68Zm-4.5782,10.1445c0,1.2539.4747,1.7666,1.88,1.7666,2.0137,0,2.3946-.38,2.3946-1.8613v-2.9824c0-1.6338-.5323-1.8614-2.3946-1.8614-1.5957,0-1.88.6074-1.88,1.7666Z"/>
    <path class="cls-3" d="M958.2373,544.3571h1.1963l.2852.3047v13.2216h-1.52l-.2656-.247v-.3233l-.7793.4942a5.1188,5.1188,0,0,1-1.6152.2666c-2.6973,0-3.628-1.0264-3.628-3.5723v-3.21c0-2.28.9688-3.4961,3.628-3.4961a8.0781,8.0781,0,0,1,1.292.1524l1.1025.4941V544.68Zm-4.5781,10.1445c0,1.2539.4746,1.7666,1.88,1.7666,2.0136,0,2.3945-.38,2.3945-1.8613v-2.9824c0-1.6338-.5322-1.8614-2.3945-1.8614-1.5957,0-1.88.6074-1.88,1.7666Z"/>
    <path class="cls-3" d="M964.2607,544.5094V546.39l-.247.2656h-1.5762l-.2666-.2656-.0186-1.8623.2852-.2657h1.5762Zm-.1142,13.127-.2471.2656h-1.3105l-.2657-.2656v-9.4229l.2657-.2656h1.33l.2276.2656Z"/>
    <path class="cls-3" d="M974.6709,551.1774v6.459l-.2471.247h-1.5381v-6.706c0-1.2158-.3427-1.6338-1.9384-1.6338-1.7666,0-1.9375.6455-1.9375,1.0635v7.0293l-.2471.247h-1.5576v-9.67l.2285-.2842h1.3105l.2657.2657v.3418l.76-.4942a2.357,2.357,0,0,1,1.1778-.2851C973.5127,547.7575,974.6709,548.3473,974.6709,551.1774Z"/>
    <path class="cls-3" d="M979.4033,559.6881c.1328.7217.76.8174,1.6153.8174,1.0449.0186,1.8994-.1143,1.8994-2.0332v-1.083l-.7032.57a3.5165,3.5165,0,0,1-1.1962.1328c-2.2608,0-3.7051-1.083-3.7051-3.666v-2.8125c0-2.4883.9687-3.9316,3.7236-3.7988,1.083.0761,1.4815.1894,1.8809.5508v-.1905l.3037-.2275h1.2734l.2461.2471v10.2773c0,3.249-1.8428,3.7236-3.7226,3.7236-1.7862,0-3.2872-.5888-3.4766-2.47l.2471-.2471h1.3671Zm3.5147-9.1943c0-.7793-.1709-.9121-1.8994-.9121-1.71,0-1.919.5322-1.919,2.0322v2.8125c0,1.12.36,1.8613,1.919,1.8613.7021-.0195,1.2158-.0566,1.8994-.0761Z"/>
    <path class="cls-3" d="M994.6973,556.2311v1.082a9.8874,9.8874,0,0,1-3.5518.7412c-2.2607,0-3.7617-.8925-3.7617-3.666v-2.9834c0-2.6972,1.5391-3.6279,3.7617-3.6279,2.2607,0,3.78.9121,3.78,3.6279v2.1094l-.3037.2471-5.4522-.0381v.665c0,1.3672.5508,1.8613,1.9756,1.8613a27.6748,27.6748,0,0,0,3.23-.2275Zm-5.5274-3.9522.76-.3222h3.1914v-.5518c0-1.3486-.3994-1.8613-1.9756-1.8613-1.2158,0-1.957.1709-1.9756,1.8047Z"/>
  </g>
  <g>
    <path class="cls-3" d="M782.0957,609.55v.2471c1.4629,1.8242,2.9639,3.7236,4.4072,5.5469v.7226l-.2275.2657h-1.3106c-1.5586-1.7862-2.9453-3.7041-4.4834-5.585h-.9121v5.3193l-.247.2657h-1.3487l-.247-.2657V603.0534l.247-.2657h1.3487l.247.2657v5.9082h.7412c1.4053-2.0323,2.8868-4.16,4.293-6.1739h1.2344l.2471.2657v.6845Z"/>
    <path class="cls-3" d="M792.166,616.6364c-2.2607,0-3.7617-1.2344-3.7617-3.4571v-3.5908c0-2.166,1.5391-3.4189,3.7617-3.4189,2.2608,0,3.78,1.2158,3.78,3.4189v3.5908C795.9463,615.3639,794.4072,616.6364,792.166,616.6364Zm1.9756-7.0479c0-.8545-.3994-1.6523-1.9756-1.6523-1.2353,0-1.9765.456-1.9765,1.6523v3.5908c0,.8545.4179,1.6524,1.9765,1.6524,1.2344,0,1.9756-.4942,1.9756-1.6524Z"/>
    <path class="cls-3" d="M798.6836,616.3327v-9.6885l.2656-.2471h1.501v.5127l.9121-.4746a.8838.8838,0,0,1,.3037-.0381h1.2725v1.7861h-1.4434c-.9883,0-1.0263,0-1.0263.3418v7.5606l-.2276.2471Z"/>
    <path class="cls-3" d="M810.1387,609.3991l-.208-.2286c-.0577-.9306-.3428-1.1962-1.8809-1.1962-1.6719,0-1.73.7021-1.73,1.2539,0,.38.19.74.95.9306,1.0068.2471,1.3486.3223,2.4883.6074,1.8242.4561,2.1279,1.3868,2.1279,2.5274,0,2.1846-.6269,3.248-3.7617,3.248-2.26,0-3.6846-.76-3.7422-3.1914l.2285-.209h1.3867l.1895.1895c.0762,1.0264.38,1.4443,1.9375,1.4443,1.8242,0,1.9766-.3037,1.9766-1.4814,0-.4561-.19-.7793-.97-.9883-.7978-.209-1.5195-.38-2.3935-.6269-1.3487-.38-2.1846-1.1211-2.1846-2.45,0-1.6534.8936-3.0215,3.5342-3.0215,2.7539,0,3.6094.8935,3.666,2.9638l-.2275.2286Z"/>
    <path class="cls-3" d="M821.5957,609.6266v6.459l-.2471.2471h-1.5381v-6.7061c0-1.2158-.3427-1.6338-1.9384-1.6338-1.7666,0-1.9375.6455-1.9375,1.0635v7.0293l-.2471.2471H814.13v-9.67l.2285-.2841h1.3105l.2657.2656v.3418l.76-.4942a2.357,2.357,0,0,1,1.1778-.2851C820.4375,606.2067,821.5957,606.7965,821.5957,609.6266Z"/>
    <path class="cls-3" d="M836.8721,614.7174v1.2539a11.5855,11.5855,0,0,1-3.5147.5323,3.8128,3.8128,0,0,1-3.1533-1.254l-.7793.7217c-.3613.3233-.7031.5518-2.375.5518-2.2607,0-3.3809-.5137-3.3809-3.3057,0-1.9,1.4249-2.9453,3.2676-2.9453h2.45V609.57c0-1.2354-.7793-1.5391-1.7861-1.5391-.9688,0-1.7471.0762-1.709,1.1777l-.2666.2471h-1.3105l-.2471-.2471c-.0947-2.3554,1.501-2.9443,3.5332-2.9443a4.0531,4.0531,0,0,1,2.5459.9873h.02a4.5344,4.5344,0,0,1,3.1914-1.0254c2.2412,0,3.7608.9121,3.7608,3.6279v1.919l-.2657.2471-5.49-.0381v.8554c0,1.3672.5508,1.8614,1.9951,1.8614,1.0635,0,2.6406-.1143,3.3057-.19Zm-7.5039-3.1719c-.3428.1514-.5323.3038-.8741.4366h-1.5009c-.9121,0-1.52.3418-1.52,1.2353,0,1.52.2471,1.52,1.3868,1.5h.3984a1.92,1.92,0,0,0,2.1279-1.8047Zm2.0136-.7216.7217-.6084h3.21v-.3614c0-1.3486-.3985-1.8613-1.9561-1.8613-1.2539,0-1.9756.1524-1.9951,1.8047Z"/>
    <path class="cls-3" d="M841.375,603.13v3.7617c.3809-.1708.7607-.3417,1.1025-.4941a8.3609,8.3609,0,0,1,1.292-.1523c2.6778,0,3.6475,1.2158,3.6475,3.4961v3.21c0,2.5459-.9316,3.5723-3.6475,3.5723a5.1857,5.1857,0,0,1-1.5771-.2471l-.8174-.5137v.3233l-.2461.2471H839.59V603.111l.2852-.3047h1.1963Zm4.2744,6.6494c0-1.1591-.2656-1.7666-1.88-1.7666-1.8623,0-2.3945.2276-2.3945,1.8614v2.9824c0,1.4814.3994,1.8613,2.3945,1.8613,1.4053,0,1.88-.5127,1.88-1.7666Z"/>
    <path class="cls-3" d="M855.1309,609.3991l-.208-.2286c-.0577-.9306-.3428-1.1962-1.8809-1.1962-1.6719,0-1.73.7021-1.73,1.2539,0,.38.19.74.95.9306,1.0068.2471,1.3486.3223,2.4883.6074,1.8242.4561,2.1279,1.3868,2.1279,2.5274,0,2.1846-.6269,3.248-3.7617,3.248-2.26,0-3.6846-.76-3.7422-3.1914l.2285-.209H850.99l.19.1895c.0762,1.0264.38,1.4443,1.9375,1.4443,1.8242,0,1.9766-.3037,1.9766-1.4814,0-.4561-.1905-.7793-.97-.9883-.7978-.209-1.5195-.38-2.3935-.6269-1.3487-.38-2.1846-1.1211-2.1846-2.45,0-1.6534.8936-3.0215,3.5342-3.0215,2.7539,0,3.6094.8935,3.666,2.9638l-.2275.2286Z"/>
    <path class="cls-3" d="M862.2188,614.0338c.7792-2.5459,1.6142-5.0722,2.4882-7.6552h1.52l.19.2275v.2851l-3.0205,9.4415h-2.47l-3.0391-9.461v-.2656l.1894-.2275h1.5391l2.4883,7.6552Z"/>
    <path class="cls-3" d="M875.1562,614.68v1.082a9.8865,9.8865,0,0,1-3.5517.7413c-2.2607,0-3.7617-.8926-3.7617-3.6661v-2.9834c0-2.6972,1.539-3.6279,3.7617-3.6279,2.2607,0,3.78.9121,3.78,3.6279v2.1094l-.3037.2471-5.4522-.0381v.665c0,1.3672.5508,1.8614,1.9756,1.8614a27.6833,27.6833,0,0,0,3.2295-.2276Zm-5.5273-3.9521.76-.3223H873.58v-.5518c0-1.3486-.3994-1.8613-1.9756-1.8613-1.2158,0-1.957.1709-1.9756,1.8047Z"/>
    <path class="cls-3" d="M879.6982,606.6246v11.3418c0,1.919-1.1025,2.6788-2.47,2.6788h-.456l-.2852-.2852v-1.1963l.2852-.2851h.3613c.4365,0,.7978-.1905.7978-.836v-11.418l.2842-.2275h1.2158Zm.1709-3.666V604.84l-.2656.2656h-1.5586l-.2656-.2656-.0186-1.8623.2842-.2656h1.5586Z"/>
    <path class="cls-3" d="M893.2637,604.5543c-.5323,0-1.0449-.0381-2.85-.0381-1.2539,0-2.07.2471-2.07,1.8809v2.2412l.9111-.76a3.3617,3.3617,0,0,1,1.1592-.2471c2.9824,0,3.78.8359,3.78,3.6289v1.6719c0,2.2031-.7783,3.5908-3.8564,3.5908-2.9443,0-3.7422-1.3682-3.7422-3.5723V606.359c0-2.2226.8164-3.5908,3.8184-3.5908.9306,0,1.8613.0576,2.9443.0762l.2285.2666c0,.1709-.0195.4365-.0195,1.1777Zm-.8741,6.7246c0-1.6337-.3417-1.8613-2.0517-1.8613-1.5195,0-1.9941.2276-1.9941,1.8613v1.5967c0,1.5957.8349,1.8614,1.9941,1.8614,1.1973,0,2.0517-.2286,2.0517-1.8614Z"/>
    <path class="cls-3" d="M900.0469,616.485c-2.9639,0-3.5723-1.4443-3.5723-3.6475v-6.5927c0-1.6709.627-3.5713,3.6475-3.5713s3.61,1.3867,3.61,3.5908v6.5918C903.7324,615.0787,903.124,616.485,900.0469,616.485Zm1.8994-10.1826c0-1.6153-.627-1.8623-1.8242-1.8623-1.1778,0-1.8614.247-1.8614,1.8623v6.5156c0,1.7285.6836,1.8623,1.8614,1.8623,1.1972,0,1.8242-.0762,1.8242-1.8623Z"/>
    <path class="cls-3" d="M905.7275,618.5368v-.5323l.9307-3.0966h1.8809v.874l-1.5957,2.7549Z"/>
    <path class="cls-3" d="M779.6641,633.6608h4.3886v-4.6162l.2471-.2471h1.3291l.2285.2471v9.8408l-.247.2471h-1.5577v-3.6856h-6.041l-.2666-.2656v-1.3867l3.6289-8.1885h1.1778l.2851.2851v.5889Z"/>
    <path class="cls-3" d="M794.7686,627.3541c-.5323,0-1.045-.038-2.85-.038-1.2539,0-2.07.247-2.07,1.8808v2.2412l.9112-.76a3.3607,3.3607,0,0,1,1.1591-.2471c2.9825,0,3.78.8359,3.78,3.6289v1.6719c0,2.2031-.7793,3.5908-3.8564,3.5908-2.9444,0-3.7422-1.3682-3.7422-3.5723v-6.5918c0-2.2226.8164-3.5908,3.8183-3.5908.9307,0,1.8614.0576,2.9444.0762l.2285.2666c0,.1709-.0195.4365-.0195,1.1777Zm-.8741,6.7246c0-1.6328-.3418-1.8613-2.0517-1.8613-1.52,0-1.9942.2285-1.9942,1.8613v1.5967c0,1.5957.835,1.8614,1.9942,1.8614,1.1972,0,2.0517-.2276,2.0517-1.8614Z"/>
    <path class="cls-3" d="M805.5215,625.9108v1.4629l-4.35,11.7588h-1.5586v-.7793l3.9326-10.8467v-.1143h-5.7373l-.2471-.2656v-1.2158l.2471-.2666h7.4658Z"/>
    <path class="cls-3" d="M814.7939,625.9108v1.3486l-2.6591,3.6856h.247c2.1651.3222,2.7168,1.1777,2.7168,3.3242v1.33c0,2.2412-.8554,3.666-3.8183,3.666-2.9073,0-3.7432-1.0254-3.7813-3.3242l.2471-.2657H809l.2471.2657c.0947,1.539.6269,1.5576,2.0136,1.5576,1.2159,0,2.0137-.0186,2.0137-1.8994v-1.292c0-1.5772-.874-1.7862-2.0322-1.7862h-1.0645l-.2656-.2656v-1.14l2.7549-3.7237h-4.3887l-.2851-.2851v-1.2159l.2851-.2851h6.2686Z"/>
    <path class="cls-3" d="M829.8984,639.1325h-1.4443l-3.3047-5.6993c-.3994,0-.874-.038-1.2539-.038l-.57-.36v5.832l-.2471.2657H821.749l-.247-.2657V625.8346l.2275-.2471h4.4267c2.8877,0,3.5713,1.6719,3.5713,3.4952v1.0263c0,.74-.3037,3.0391-2.4892,3.2676.9316,1.6338,1.957,3.3428,2.9072,4.9766v.5322Zm-3.9326-7.3516c1.4248-.0195,1.919-.3994,1.919-1.6914V629.14c0-1.3116-.5323-1.71-1.7666-1.71h-2.793v4.3506Z"/>
    <path class="cls-3" d="M838.4111,629.7672a3.1923,3.1923,0,0,1,1.3868,2.85v3.0772a3.5358,3.5358,0,0,1-3.8,3.666,5.5467,5.5467,0,0,1-.7031-.0371c-.1513.4746-.3418,1.0439-.4746,1.5h-1.1015l-.3418-.2842v-.8555l.3037-.95a3.9576,3.9576,0,0,1-1.4444-3.039v-3.0772a3.4965,3.4965,0,0,1,3.7617-3.6289c.3418,0,.4747-.0185.7793,0,.1514-.4179.3418-.9306.4747-1.31H838.43s.19.209.2851.3037v.7978l-.3037.8741Zm-2.166.9873h-.2471a1.7377,1.7377,0,0,0-1.957,1.8623v3.0772a3.3879,3.3879,0,0,0,.2666,1.083Zm1.7285,1.6719a2.3172,2.3172,0,0,0-.1709-.7793l-1.9756,6.0986.1709-.1709a1.774,1.774,0,0,0,1.9756-1.8808Z"/>
    <path class="cls-3" d="M848.6514,625.6061h1.1963l.2851.3047v13.2217h-1.5195l-.2656-.2471v-.3233l-.7793.4942a5.12,5.12,0,0,1-1.6153.2666c-2.6972,0-3.6279-1.0264-3.6279-3.5723v-3.21c0-2.28.9687-3.4961,3.6279-3.4961a8.089,8.089,0,0,1,1.292.1523l1.1026.4942v-3.7618Zm-4.5782,10.1445c0,1.2539.4747,1.7666,1.88,1.7666,2.0137,0,2.3946-.38,2.3946-1.8613v-2.9824c0-1.6338-.5323-1.8614-2.3946-1.8614-1.5957,0-1.88.6075-1.88,1.7666Z"/>
    <path class="cls-3" d="M855.72,636.8336c.7793-2.5459,1.6143-5.0722,2.4883-7.6552h1.5205l.1895.2275v.2852l-3.02,9.4414h-2.47l-3.039-9.461v-.2656l.1894-.2275h1.5391l2.4883,7.6552Z"/>
    <path class="cls-3" d="M863.5283,625.7584v1.8809l-.2471.2656h-1.5761l-.2666-.2656-.0186-1.8623.2852-.2656h1.5761Zm-.1142,13.127-.2471.2656h-1.3106l-.2656-.2656v-9.4229l.2656-.2656h1.33l.2276.2656Z"/>
    <path class="cls-3" d="M868.4873,640.9371c.1328.7217.76.8174,1.6152.8174,1.045.0186,1.8995-.1142,1.8995-2.0332v-1.083l-.7032.57a3.5168,3.5168,0,0,1-1.1963.1328c-2.2607,0-3.705-1.083-3.705-3.666v-2.8125c0-2.4883.9687-3.9316,3.7236-3.7988,1.083.0762,1.4814.1895,1.8809.5508v-.19l.3037-.2276h1.2734l.2461.2471v10.2773c0,3.2491-1.8428,3.7237-3.7227,3.7237-1.7861,0-3.2871-.5889-3.4765-2.47l.247-.247H868.24Zm3.5147-9.1943c0-.7793-.1709-.9121-1.8995-.9121-1.71,0-1.9189.5322-1.9189,2.0322v2.8125c0,1.12.36,1.8614,1.9189,1.8614.7022-.02,1.2159-.0567,1.8995-.0762Z"/>
    <path class="cls-3" d="M888.5879,635.6178c0,2.5078-1.14,3.7617-4.3311,3.7617-3.04,0-4.1416-1.33-4.1982-3.5146l.2471-.2471h1.3291l.247.2471c.0762,1.2353.8936,1.6719,2.3565,1.6719,2.0137,0,2.5449-.4747,2.5449-1.9571a1.6564,1.6564,0,0,0-1.0449-1.71c-.418-.209-2.3555-1.1778-3.6279-1.7852a3.0356,3.0356,0,0,1-1.8428-3.1533c0-2.0518.9873-3.4961,4.0078-3.4961,3.0967,0,4.0654.8555,4.1416,3.4l-.2471.2471h-1.3672l-.247-.2852c-.0381-1.2529-.418-1.5762-2.28-1.5762-1.8233,0-2.1846.6074-2.1846,1.6143a1.7016,1.7016,0,0,0,1.0264,1.71c2.09.95,2.792,1.254,3.3242,1.52C887.8857,632.75,888.5879,633.4528,888.5879,635.6178Z"/>
    <path class="cls-3" d="M893.9463,639.1325a2.3416,2.3416,0,0,1-2.5078-2.6592v-5.49h-1.7862v-1.539l.2471-.2471h1.5391v-3.2861l.3037-.3047h1.2158l.2656.2851v3.3057h2.09v1.0449l-.7783.7412h-1.3116V636.53a.73.73,0,0,0,.7979.836h1.33v1.5195l-.2657.2471Z"/>
    <path class="cls-3" d="M904.7559,637.48v1.082a9.8875,9.8875,0,0,1-3.5518.7413c-2.2607,0-3.7617-.8926-3.7617-3.6661v-2.9834c0-2.6972,1.539-3.6279,3.7617-3.6279,2.2607,0,3.78.9121,3.78,3.6279v2.1094l-.3037.2471-5.4522-.0381v.665c0,1.3672.5508,1.8614,1.9756,1.8614a27.6833,27.6833,0,0,0,3.2295-.2276Zm-5.5274-3.9521.76-.3223H903.18v-.5518c0-1.3486-.3994-1.8613-1.9756-1.8613-1.2158,0-1.957.1709-1.9756,1.8047Z"/>
    <path class="cls-3" d="M910.6475,636.8336c.7793-2.5459,1.6142-5.0722,2.4882-7.6552h1.52l.1895.2275v.2852l-3.02,9.4414h-2.47l-3.0391-9.461v-.2656l.1895-.2275h1.539l2.4883,7.6552Z"/>
    <path class="cls-3" d="M923.87,632.4264v6.459l-.2471.2471h-1.538v-6.7061c0-1.2158-.3428-1.6338-1.9385-1.6338-1.7666,0-1.9375.6455-1.9375,1.0635v7.0293l-.2471.2471h-1.5576v-9.67l.2285-.2841h1.3106l.2656.2656v.3418l.76-.4942a2.3565,2.3565,0,0,1,1.1777-.2851C922.7119,629.0065,923.87,629.5963,923.87,632.4264Z"/>
    <path class="cls-3" d="M931.8887,632.1989l-.209-.2285c-.0576-.9307-.3428-1.1963-1.8809-1.1963-1.6718,0-1.73.7021-1.73,1.2539,0,.38.1905.74.95.9306,1.0069.2471,1.3487.3223,2.4883.6075,1.8242.456,2.1279,1.3867,2.1279,2.5263,0,2.1856-.6269,3.249-3.7617,3.249-2.26,0-3.6845-.76-3.7422-3.1914l.2286-.2089h1.3867l.1894.1894c.0762,1.0264.38,1.4443,1.9375,1.4443,1.8242,0,1.9766-.3037,1.9766-1.4824,0-.4551-.19-.7783-.97-.9873-.7979-.209-1.52-.38-2.3936-.6269-1.3486-.38-2.1846-1.1211-2.1846-2.45,0-1.6534.8936-3.0215,3.5342-3.0215,2.7539,0,3.6094.8935,3.666,2.9639l-.2275.2285Z"/>
  </g>
  <g>
    <path class="cls-3" d="M409.6636,633.4245a4.0588,4.0588,0,0,1,1.1015,2.6777v6.3838a3.7277,3.7277,0,0,1-3.9326,3.7422,4.327,4.327,0,0,1-1.2539-.1709c-.0947.3037-.2471.665-.3418.9687h-1.14l-.3037-.2851v-.9122l.2089-.664a3.5382,3.5382,0,0,1-1.1025-2.6983v-6.3828a3.6569,3.6569,0,0,1,3.9326-3.666,6.153,6.153,0,0,1,1.292.1514l.1328-.38v.0195l.2471-.7226h1.1592l.247.247v.9688ZM406.0542,638.8l1.5-4.5029a3.7443,3.7443,0,0,0-.7217-.0752,1.8786,1.8786,0,0,0-2.1084,1.8994v6.4209c0,.1143.0567.4942.0567.4942Zm2.83-2.66v-.7217c-.1524.6836-.3233,1.292-.4746,1.7861-.4756,1.5762-1.1026,3.628-2.2422,7.1426a3.14,3.14,0,0,0,.665.0381,1.8412,1.8412,0,0,0,2.0518-1.919Z"/>
    <path class="cls-3" d="M418.6685,639.0856l-.2081-.2285c-.0576-.9307-.3427-1.1963-1.8808-1.1963-1.6719,0-1.73.7021-1.73,1.2539,0,.38.19.74.95.9307,1.0068.247,1.3486.3222,2.4883.6074,1.8242.456,2.1279,1.3867,2.1279,2.5273,0,2.1846-.6269,3.2481-3.7617,3.2481-2.26,0-3.6846-.76-3.7422-3.1914l.2285-.209h1.3867l.19.1894c.0762,1.0264.38,1.4444,1.9375,1.4444,1.8242,0,1.9765-.3037,1.9765-1.4815,0-.456-.19-.7793-.97-.9883-.7978-.2089-1.5195-.38-2.3935-.6269-1.3487-.38-2.1846-1.1211-2.1846-2.45,0-1.6533.8936-3.0215,3.5342-3.0215,2.7539,0,3.6094.8936,3.666,2.9639l-.2275.2285Z"/>
    <path class="cls-3" d="M425.8706,646.0192a2.3416,2.3416,0,0,1-2.5078-2.6592v-5.49h-1.7861v-1.5391l.247-.2471h1.5391v-3.2861l.3037-.3047h1.2158l.2656.2852v3.3056h2.09v1.045l-.7783.7412h-1.3116v5.5468a.73.73,0,0,0,.7979.836h1.33v1.5195l-.2656.2471Z"/>
    <path class="cls-3" d="M436.68,644.3668v1.0821a9.8874,9.8874,0,0,1-3.5518.7412c-2.2607,0-3.7617-.8926-3.7617-3.666v-2.9834c0-2.6973,1.5391-3.628,3.7617-3.628,2.2608,0,3.78.9121,3.78,3.628V641.65l-.3037.2471-5.4522-.0381v.6651c0,1.3671.5508,1.8613,1.9756,1.8613a27.6979,27.6979,0,0,0,3.2295-.2275Zm-5.5274-3.9521.76-.3223h3.1914v-.5517c0-1.3487-.3994-1.8614-1.9756-1.8614-1.2158,0-1.957.1709-1.9756,1.8047Z"/>
    <path class="cls-3" d="M439.5513,646.0192v-9.6885l.2656-.2471h1.501v.5127l.9121-.4746a.8835.8835,0,0,1,.3037-.0381h1.2725V637.87h-1.4434c-.9883,0-1.0264,0-1.0264.3418v7.5605l-.2275.2471Z"/>
    <path class="cls-3" d="M448.8032,643.72c.7793-2.5459,1.6143-5.0723,2.4883-7.6553h1.5205l.19.2275v.2852l-3.0205,9.4414h-2.47l-3.039-9.461v-.2656l.1894-.2275h1.5391l2.4883,7.6553Z"/>
    <path class="cls-3" d="M461.7407,644.3668v1.0821a9.8869,9.8869,0,0,1-3.5517.7412c-2.2608,0-3.7618-.8926-3.7618-3.666v-2.9834c0-2.6973,1.5391-3.628,3.7618-3.628,2.2607,0,3.78.9121,3.78,3.628V641.65l-.3037.2471-5.4521-.0381v.6651c0,1.3671.5508,1.8613,1.9756,1.8613a27.7,27.7,0,0,0,3.2295-.2275Zm-5.5273-3.9521.76-.3223h3.1915v-.5517c0-1.3487-.3995-1.8614-1.9756-1.8614-1.2159,0-1.9571.1709-1.9756,1.8047Z"/>
    <path class="cls-3" d="M466.2827,636.3112V647.653c0,1.9189-1.1025,2.6787-2.47,2.6787h-.4561l-.2851-.2852V648.85l.2851-.2851h.3614c.4365,0,.7978-.1905.7978-.836V636.3112l.2842-.2276h1.2158Zm.1709-3.666v1.8808l-.2656.2656h-1.5586l-.2656-.2656-.0186-1.8623.2842-.2656h1.5586Z"/>
    <path class="cls-3" d="M473.1421,636.3307l-.2471-.2471c.0381-2.3174.5889-3.7041,3.8946-3.7041,2.7548,0,3.8183,1.0254,3.8183,3.7422a3.821,3.821,0,0,1-1.2344,2.9444c-1.1787,1.0068-2.622,1.6337-3.9326,2.622-.5322.418-.57.5508-.57,1.3291v1.2354h5.49l.2657.247v1.2725l-.2657.2471h-7.124l-.2656-.2471v-2.6787c0-1.2725.0185-1.6523.8926-2.374,1.3681-1.0264,2.7929-1.9,4.2744-2.9639a1.9444,1.9444,0,0,0,.6836-1.6152c0-1.8047-.2461-1.9942-2.0322-1.9942-1.2725,0-2.0333-.0576-2.1084,1.9375l-.2471.2471Z"/>
    <path class="cls-3" d="M482.49,648.2233v-.5322l.9307-3.0967h1.8809v.874l-1.5957,2.7549Z"/>
    <path class="cls-3" d="M404.1919,663.3473h4.3887v-4.6162l.247-.2471h1.3291l.2286.2471v9.8408l-.2471.2471h-1.5576v-3.6856H402.54l-.2667-.2656v-1.3867l3.629-8.1885H407.08l.2851.2852v.5888Z"/>
    <path class="cls-3" d="M419.2964,657.0407c-.5322,0-1.0449-.0381-2.85-.0381-1.2539,0-2.07.247-2.07,1.8808v2.2412l.9111-.76a3.3617,3.3617,0,0,1,1.1592-.2471c2.9824,0,3.78.8359,3.78,3.6289v1.6719c0,2.2031-.7793,3.5908-3.8565,3.5908-2.9443,0-3.7422-1.3682-3.7422-3.5723v-6.5917c0-2.2227.8164-3.5909,3.8184-3.5909.9306,0,1.8613.0576,2.9443.0762l.2285.2666c0,.1709-.0195.4365-.0195,1.1777Zm-.874,6.7246c0-1.6328-.3418-1.8614-2.0518-1.8614-1.52,0-1.9941.2286-1.9941,1.8614v1.5967c0,1.5957.8349,1.8613,1.9941,1.8613,1.1973,0,2.0518-.2276,2.0518-1.8613Z"/>
    <path class="cls-3" d="M423.8374,663.3473h4.3887v-4.6162l.247-.2471h1.3291l.2286.2471v9.8408l-.2471.2471h-1.5576v-3.6856h-6.041l-.2666-.2656v-1.3867l3.6289-8.1885h1.1777l.2852.2852v.5888Z"/>
    <path class="cls-3" d="M435.9976,668.9713c-2.9639,0-3.5723-1.4443-3.5723-3.6474v-6.5928c0-1.6709.6269-3.5713,3.6475-3.5713s3.61,1.3867,3.61,3.5908v6.5918C439.6831,667.5651,439.0747,668.9713,435.9976,668.9713Zm1.8994-10.1826c0-1.6152-.627-1.8623-1.8242-1.8623-1.1778,0-1.8614.2471-1.8614,1.8623v6.5156c0,1.7286.6836,1.8623,1.8614,1.8623,1.1972,0,1.8242-.0761,1.8242-1.8623Z"/>
    <path class="cls-3" d="M446.2,668.819V655.5211l.2666-.247h7.5986l.2276.247v1.33l-.2461.2656h-6.0039v3.6475h5.5859l.2461.2471v1.3291l-.2461.247h-5.5859v5.9659l-.2656.2656Z"/>
    <path class="cls-3" d="M456.0044,661.942l-.19-.19c.0576-1.6523.8554-3.0205,3.6855-3.0205,2.2988,0,3.6094.8359,3.6094,3.2676v6.5732l-.2461.2471h-1.5391v-.4746c-.1328.0947-.5508.4365-.6836.5312a6.0816,6.0816,0,0,1-1.4629.1143c-2.166,0-3.5722-.2276-3.5722-3.3057,0-1.8047,1.0449-2.9258,3.1728-2.9258l2.5264.1338v-.8359c0-1.2539-.1895-1.5576-1.69-1.5576-1.2344,0-1.9942.1709-2.0137,1.2529l-.19.19Zm3.4,5.3575c.7031-.02,1.2158-.0762,1.8994-.0958v-2.7353h-2.5068c-.9317,0-1.4248.3418-1.4248,1.2158C457.3726,667.1852,457.9038,667.3,459.4048,667.3Z"/>
    <path class="cls-3" d="M471.564,668.819l-2.2793-3.4766c-.7793,1.14-1.5967,2.3555-2.3565,3.4766h-1.4248l-.2275-.2471v-.4941l2.9443-4.2364-2.9443-4.2363v-.456l.2275-.2842h1.4248l2.3369,3.457,2.337-3.457h1.4052l.2285.2842v.4179l-2.9824,4.294,2.9824,4.2168v.4941l-.2285.2471Z"/>
    <path class="cls-3" d="M482.3364,667.1666v1.0821a9.8869,9.8869,0,0,1-3.5517.7412c-2.2608,0-3.7618-.8926-3.7618-3.666v-2.9834c0-2.6973,1.5391-3.628,3.7618-3.628,2.2607,0,3.78.9121,3.78,3.628V664.45l-.3037.2471-5.4521-.0381v.6651c0,1.3672.5508,1.8613,1.9756,1.8613a27.7,27.7,0,0,0,3.23-.2275Zm-5.5273-3.9521.76-.3223H480.76v-.5517c0-1.3487-.3995-1.8614-1.9756-1.8614-1.2159,0-1.9571.1709-1.9756,1.8047Z"/>
  </g>
  <g>
    <path class="cls-3" d="M722.4277,424.2584c0,3.0352-1.38,4.5528-5.2431,4.5528-3.68,0-5.0127-1.6094-5.0821-4.2539l.2989-.2989h1.61l.2988.2989c.0918,1.4941,1.08,2.0234,2.8506,2.0234,2.4375,0,3.0821-.5752,3.0821-2.3682a2.0041,2.0041,0,0,0-1.2647-2.0693c-.5058-.2539-2.8515-1.4258-4.3926-2.1621a3.6761,3.6761,0,0,1-2.23-3.8174c0-2.4834,1.1963-4.2305,4.8525-4.2305,3.7481,0,4.9209,1.0342,5.0127,4.1163l-.2988.2988h-1.6563l-.2988-.3457c-.0459-1.5176-.5059-1.9082-2.7588-1.9082-2.208,0-2.6445.7363-2.6445,1.9551a2.0608,2.0608,0,0,0,1.2412,2.0693c2.5293,1.1494,3.3808,1.5176,4.0244,1.84C721.5762,420.7858,722.4277,421.6364,722.4277,424.2584Z"/>
    <path class="cls-3" d="M727.627,428.5123V414.3707h-3.795l-.2988-.2988v-1.6328l.2988-.3223h9.8653l.2763.2989v1.5869l-.3457.3681h-3.77V428.19l-.2988.3222Z"/>
    <path class="cls-3" d="M735.6318,428.1442V412.4157l.3213-.2989h9.1983l.2763.2989v1.6093l-.3.3223h-7.2656v4.415h6.76l.3.2989v1.61l-.3.2989h-6.76v5.3574h7.2891l.2763.3447V428.19l-.2763.3222H735.999Z"/>
    <path class="cls-3" d="M758.95,412.4391v.7588l-4.3457,15.3144h-3.8408c-2.9434-10.1181-3.7022-12.7851-4.3457-15.1767v-.874l.3213-.3448h1.5869c1.2187,4.461,2.5986,8.8994,4.0468,14.0957v.1153h.5293v-.1153l4.0928-14.0957h1.6328Z"/>
    <path class="cls-3" d="M770.98,412.4391v15.7285l-.2529.3447h-2.2305l-5.335-10.67-.6211-1.7012V428.19l-.2988.3222h-1.6094l-.3-.3222V412.4616l.3-.3213H762.77l5.52,10.9453.5058,1.4941V412.4391l.3213-.2988h1.5869Z"/>
    <path class="cls-3" d="M783.3535,424.2584c0,3.0352-1.38,4.5528-5.2431,4.5528-3.68,0-5.0127-1.6094-5.0821-4.2539l.2988-.2989h1.61l.2988.2989c.0918,1.4941,1.08,2.0234,2.8506,2.0234,2.4375,0,3.082-.5752,3.082-2.3682a2.004,2.004,0,0,0-1.2646-2.0693c-.5059-.2539-2.8516-1.4258-4.3926-2.1621a3.6761,3.6761,0,0,1-2.2305-3.8174c0-2.4834,1.1963-4.2305,4.8526-4.2305,3.748,0,4.9209,1.0342,5.0127,4.1163l-.2988.2988h-1.6563l-.2988-.3457c-.0459-1.5176-.5059-1.9082-2.7588-1.9082-2.208,0-2.6445.7363-2.6445,1.9551a2.0608,2.0608,0,0,0,1.2412,2.0693c2.5293,1.1494,3.3808,1.5176,4.0244,1.84C782.502,420.7858,783.3535,421.6364,783.3535,424.2584Z"/>
    <path class="cls-3" d="M795.3828,420.3034v.2988c1.77,2.207,3.5869,4.5068,5.335,6.7148v.8731l-.2764.3222h-1.5869c-1.8848-2.1611-3.5635-4.4843-5.4268-6.7607h-1.1035V428.19l-.2988.3222h-1.6328l-.2988-.3222v-15.751l.2988-.3223h1.6328l.2988.3223v7.1514h.8965c1.7022-2.461,3.4961-5.0362,5.1973-7.4737h1.4951l.2988.3223v.8271Z"/>
    <path class="cls-3" d="M812.08,426.6266V428.19l-.2764.3222h-9.06l-.2988-.3222v-15.751l.3447-.3223h1.6094l.2764.3223v13.8887h7.1513Z"/>
    <path class="cls-3" d="M816.6582,428.19l-.2988.3222h-1.5869l-.3213-.3222v-15.751l.3213-.3223h1.6093l.2764.3223Z"/>
    <path class="cls-3" d="M830.2959,412.4391v15.7285l-.2529.3447h-2.2305l-5.335-10.67-.6211-1.7012V428.19l-.2988.3222h-1.6094l-.3-.3222V412.4616l.3-.3213h2.1377l5.52,10.9453.5058,1.4941V412.4391l.3213-.2988H830.02Z"/>
    <path class="cls-3" d="M835.8174,428.5123V414.3707h-3.7949l-.2989-.2988v-1.6328l.2989-.3223h9.8652l.2764.2989v1.5869l-.3457.3681h-3.77V428.19l-.2989.3222Z"/>
  </g>
  <g>
    <path class="cls-3" d="M671.5615,510.63c0,3.0352-1.38,4.5528-5.2431,4.5528-3.68,0-5.0127-1.6094-5.0821-4.2539l.2989-.2989h1.61l.2988.2989c.0918,1.4941,1.08,2.0234,2.8506,2.0234,2.4375,0,3.0821-.5752,3.0821-2.3682a2.0041,2.0041,0,0,0-1.2647-2.0693c-.5059-.2539-2.8516-1.4258-4.3926-2.1621a3.6761,3.6761,0,0,1-2.23-3.8174c0-2.4834,1.1962-4.2305,4.8525-4.2305,3.748,0,4.9209,1.0342,5.0127,4.1162l-.2988.2989h-1.6563l-.2988-.3457c-.0459-1.5176-.5059-1.9082-2.7588-1.9082-2.208,0-2.6445.7363-2.6445,1.955a2.0609,2.0609,0,0,0,1.2412,2.0694c2.5293,1.1494,3.3808,1.5176,4.0244,1.84C670.71,507.1569,671.5615,508.0075,671.5615,510.63Z"/>
    <path class="cls-3" d="M676.7607,514.8834V500.7418h-3.7949l-.2988-.2988V498.81l.2988-.3223h9.8653l.2763.2989v1.5869l-.3457.3681h-3.77v13.8194l-.2988.3222Z"/>
    <path class="cls-3" d="M684.7656,514.5153V498.7868l.3213-.2989h9.1983l.2763.2989v1.6093l-.3.3223h-7.2656v4.415h6.76l.3.2989v1.61l-.3.2988h-6.76v5.3575h7.2891l.2763.3447v1.5176l-.2763.3222h-9.1524Z"/>
    <path class="cls-3" d="M708.084,498.81v.7588l-4.3457,15.3144h-3.8408c-2.9434-10.1181-3.7022-12.7851-4.3457-15.1767v-.874l.3212-.3448h1.587c1.2187,4.461,2.5986,8.8994,4.0468,14.0957v.1153h.5293v-.1153l4.0928-14.0957h1.6328Z"/>
    <path class="cls-3" d="M720.1133,498.81v15.7285l-.2529.3447H717.63l-5.335-10.67-.6211-1.7012v12.0489l-.2988.3222h-1.6094l-.3-.3222V498.8327l.3-.3213h2.1377l5.52,10.9453.5058,1.4941V498.81l.3213-.2988h1.5869Z"/>
    <path class="cls-3" d="M732.4873,510.63c0,3.0352-1.38,4.5528-5.2432,4.5528-3.68,0-5.0127-1.6094-5.082-4.2539l.2988-.2989h1.61l.2988.2989c.0918,1.4941,1.08,2.0234,2.8506,2.0234,2.4375,0,3.082-.5752,3.082-2.3682a2.0041,2.0041,0,0,0-1.2646-2.0693c-.5059-.2539-2.8516-1.4258-4.3926-2.1621a3.6761,3.6761,0,0,1-2.2305-3.8174c0-2.4834,1.1963-4.2305,4.8526-4.2305,3.748,0,4.9209,1.0342,5.0127,4.1162l-.2989.2989h-1.6562l-.2988-.3457c-.0459-1.5176-.5059-1.9082-2.7588-1.9082-2.208,0-2.6446.7363-2.6446,1.955a2.061,2.061,0,0,0,1.2413,2.0694c2.5293,1.1494,3.3808,1.5176,4.0244,1.84C731.6357,507.1569,732.4873,508.0075,732.4873,510.63Z"/>
    <path class="cls-3" d="M734.6973,514.8834V498.7868l.3213-.2989h9.1982l.2764.2989v1.6093l-.3.3223h-7.2657v4.415h6.76l.3.2989v1.61l-.3.2988h-6.76v7.22l-.3222.3222Z"/>
    <path class="cls-3" d="M751.2783,515.2057c-3.7021,0-5.1738-1.9551-5.1738-4.2314v-8.4854c0-2.0928,1.4023-4.415,5.1973-4.415,3.6562,0,5.1962,2.1845,5.1962,4.4384V511.02C756.498,513.2506,755.0264,515.2057,751.2783,515.2057Zm2.9893-12.6709c0-1.8389-1.334-2.3682-2.9658-2.3682-1.84,0-3.0127.5977-3.0127,2.3682v8.44c0,1.6787,1.9775,2.1152,2.8515,2.1152h.3213c.8516,0,2.8057-.3447,2.8057-2.0918Z"/>
    <path class="cls-3" d="M769.1943,514.8834h-1.747l-4.002-6.8984c-.4824,0-1.0576-.0459-1.5176-.0459l-.6894-.4375v7.06l-.2988.3222h-1.61l-.2988-.3222V498.7868l.2763-.2989h5.3575c3.4951,0,4.3232,2.0235,4.3232,4.2315v1.2412c0,.8974-.3682,3.68-3.0117,3.9551,1.126,1.9775,2.3682,4.0478,3.5176,6.0254v.6435Zm-4.76-8.8994c1.7246-.0224,2.3222-.4824,2.3222-2.0459v-1.15c0-1.5859-.6435-2.0693-2.1386-2.0693h-3.38v5.2656Z"/>
    <path class="cls-3" d="M774.8086,514.8834V500.7418h-3.7949l-.2989-.2988V498.81l.2989-.3223h9.8652l.2764.2989v1.5869l-.3457.3681h-3.7705v13.8194l-.2989.3222Z"/>
  </g>
  <g>
    <path class="cls-3" d="M259.6147,535.4713l.9883-1.1494h1.2647c0,1.4258.0234,4.1387.0234,5.9785v2.4141l-.3447.3457h-.8281c-.2989,0-.8741-.0234-1.1036-.0234v-.667l-2.76.8506c-4.3457,0-5.1045-2.0459-5.1045-4.76v-7.5195c0-1.4483.666-4.4151,5.081-4.4151,4.0479,0,4.99,1.4258,5.06,4.07l-.2988.3682h-1.61l-.3213-.3447c-.1152-1.6563-.874-1.9092-2.8291-1.9092-1.4482,0-2.8964.2529-2.8964,2.2764v7.4736c0,2.0234.8271,2.5293,2.8964,2.5293.2764,0,2.7832-.2988,2.7832-.2988Z"/>
    <path class="cls-3" d="M264.5386,542.6686V526.94l.3213-.2989h9.1982l.2764.2989V528.55l-.3.3222H266.769v4.4151h6.76l.3.2988v1.61l-.3.2989h-6.76v5.3574h7.2891l.2764.3447v1.5176l-.2764.3223h-9.1523Z"/>
    <path class="cls-3" d="M281.35,543.359c-3.7022,0-5.1738-1.9551-5.1738-4.2314v-8.4854c0-2.0927,1.4023-4.415,5.1972-4.415,3.6563,0,5.1963,2.1846,5.1963,4.4385v8.5078C286.57,541.4039,285.0981,543.359,281.35,543.359Zm2.9893-12.6709c0-1.8388-1.334-2.3681-2.9659-2.3681-1.84,0-3.0127.5976-3.0127,2.3681v8.44c0,1.6787,1.9776,2.1152,2.8516,2.1152h.3213c.8516,0,2.8057-.3447,2.8057-2.0918Z"/>
    <path class="cls-3" d="M301.68,526.94v15.7744l-.3.3223h-1.6319l-.3-.2989V530.55l-.5283,1.5635-2.7822,5.749h-1.794l-2.9668-6.14-.3671-1.2422v12.2568l-.253.2989h-1.7246l-.2529-.2989V526.9635l.2988-.3223h2.2764l3.8857,7.98,3.8408-7.98h2.3223Z"/>
    <path class="cls-3" d="M314.2847,526.94v11.6582c0,3.15-1.5635,4.6679-5.1973,4.6679-3.6094,0-5.1963-1.54-5.1963-4.69V526.9635l.2754-.3223h1.61l.3212.3223v11.6123c0,1.8858,1.1045,2.5987,2.9893,2.5987s2.9668-.7823,2.9668-2.5987V526.9635l.2988-.3223h1.6328Z"/>
    <path class="cls-3" d="M326.6353,538.7829c0,3.0351-1.38,4.5527-5.2432,4.5527-3.6787,0-5.0127-1.6094-5.082-4.2539l.2988-.2988h1.61l.2989.2988c.0918,1.4941,1.08,2.0234,2.8506,2.0234,2.4375,0,3.082-.5752,3.082-2.3681a2.0041,2.0041,0,0,0-1.2647-2.0694c-.5058-.2539-2.8515-1.4258-4.3925-2.1621a3.676,3.676,0,0,1-2.2305-3.8174c0-2.4834,1.1963-4.23,4.8525-4.23,3.7481,0,4.9209,1.0341,5.0127,4.1162l-.2988.2988h-1.6563l-.2988-.3457c-.0459-1.5176-.5058-1.9082-2.7588-1.9082-2.208,0-2.6445.7363-2.6445,1.9551a2.061,2.061,0,0,0,1.2412,2.0693c2.5293,1.1494,3.3809,1.5176,4.0244,1.84C325.7837,535.31,326.6353,536.1608,326.6353,538.7829Z"/>
    <path class="cls-3" d="M328.8452,542.6686V526.94l.3213-.2989h9.1982l.2764.2989V528.55l-.3.3222h-7.2656v4.4151h6.76l.3.2988v1.61l-.3.2989h-6.76v5.3574h7.289l.2764.3447v1.5176l-.2764.3223h-9.1523Z"/>
    <path class="cls-3" d="M350.7847,526.94v11.6582c0,3.15-1.5635,4.6679-5.1973,4.6679-3.6094,0-5.1963-1.54-5.1963-4.69V526.9635l.2754-.3223h1.61l.3212.3223v11.6123c0,1.8858,1.1045,2.5987,2.9893,2.5987s2.9668-.7823,2.9668-2.5987V526.9635l.2988-.3223h1.6328Z"/>
    <path class="cls-3" d="M365.9868,526.94v15.7744l-.2988.3223h-1.6318l-.3-.2989V530.55l-.5283,1.5635-2.7822,5.749h-1.7939l-2.9659-6.14-.3681-1.2422v12.2568l-.253.2989H353.34l-.2529-.2989V526.9635l.2988-.3223h2.2764l3.8857,7.98,3.8409-7.98h2.3222Z"/>
    <path class="cls-3" d="M373.6255,543.0368V526.94l.3213-.2989h9.1982l.2764.2989V528.55l-.3.3222H375.856v4.4151h6.76l.3.2988v1.61l-.3.2989h-6.76v7.22l-.3223.3223Z"/>
    <path class="cls-3" d="M392.7817,527.0094l3.6563,15.5674v.46h-2.1846l-1.0117-4.461h-5.8408c-.2988,1.4258-.6895,3.0586-.9658,4.461H384.228V542.6l3.5869-15.5908.4141-.3682h4.2773Zm-.0918,9.3584c-.5283-2.5752-1.1035-4.9892-1.6328-7.5879H389.563l-1.6563,7.5879Z"/>
    <path class="cls-3" d="M407.87,543.0368h-1.4941l-3.5869-5.9327c-.2989.5059-.5752.92-3.6563,5.9327h-1.4951l-.3447-.2989v-.9892l4.208-6.9209-4.208-6.9219v-.8965l.2763-.3682h1.54l3.61,5.91c.92-1.4951,1.9082-3.0361,3.68-5.91h1.4483l.3222.3682v.9883l-4.1855,6.7842c1.4258,2.2529,2.7822,4.5752,4.1855,6.8291v1.1035Z"/>
    <path class="cls-3" d="M410.1489,542.6686V526.94l.3213-.2989h9.1983l.2763.2989V528.55l-.3.3222h-7.2656v4.4151h6.76l.3.2988v1.61l-.3.2989h-6.76v5.3574h7.2891l.2763.3447v1.5176l-.2763.3223h-9.1524Z"/>
  </g>
  <rect class="cls-5" x="0.2531" y="2.9951" width="1069.3507" height="858.7216"/>
</svg>
